<svg id="Layer_1" data-name="Layer 1" xmlns="http://www.w3.org/2000/svg" viewBox="0 0 200 200"><defs><style>.cls-1{fill:#15bbfa;}.cls-2{fill:#fff;}</style></defs><rect class="cls-1" width="200" height="200" rx="100"/><path class="cls-2" d="M99.32,166.11c-5.91.94-11.88-1.83-18.13-1.93-7-3-14.42-5.27-20.87-9.71A100.61,100.61,0,0,1,45,141c-3.52-3.65-9.61-14-10.88-18.86-1.7-6.52-3.23-13.19-2.22-19.93a81.83,81.83,0,0,1,6.39-22.71,77.16,77.16,0,0,1,3.82-7.88A21.71,21.71,0,0,1,53.69,62.3a16.7,16.7,0,0,1,11.75.45A10.36,10.36,0,0,1,71,68.45a11.15,11.15,0,0,1,.26,8,46.12,46.12,0,0,1-6.86,14.1c-2.4,3.32-5.62,14.38-5.74,16-.42,5.92,1.54,11.18,4.11,16.24a19.16,19.16,0,0,0,10,9.11,8,8,0,0,0,9.83-3.59,10.13,10.13,0,0,0,1-2.08c.25-.8.83-1.25.92-.22.14,1.58,3.4,10.66,15,10.66s13.93-6.83,15-9.79c.24-.69,1-.75,1.63-.36a3.62,3.62,0,0,1,1,1c2.36,3.76,5.94,4,9.91,3.79,3.31-.19,5.32-2.24,7.11-4.44,4.45-5.48,7.5-11.82,7-18.9a35.12,35.12,0,0,0-5.26-16.71c-2.7-4.2-5.61-8.45-6.89-13.54-1-4-.91-10.53,1.61-12.67a13.2,13.2,0,0,1,8-3.49c9-.36,15.43,3.22,19.72,11.27,4,7.46,6,14.53,7.94,21.6,1.32,4.82,2.4,9.67,1.86,14.61a55.23,55.23,0,0,1-4.53,17.5A64,64,0,0,1,149,147c-3.84,3.55-8.27,6.33-12.6,9.22-6.25,4.18-13.24,6.46-20.56,8C110.54,165.39,105.25,166.48,99.32,166.11Z"/><path class="cls-2" d="M121.39,100.64c.18,3.43-.72,6.35-4.16,7.78-1.18.48-.77,1.27-.79,2a27.38,27.38,0,0,0,0,5c.23,1.58-.86,2.65-1.17,4-1.06,4.86-3.38,9.34-7.79,11.82-2.76,1.55-6,3.64-9.65,1.21-1.22-.81-3,.18-4.67-.72A19.47,19.47,0,0,1,87.77,127c-1.88-2.14-4-9.71-4.2-12.62-.15-2.72-.68-5.32-2.86-7.25-1.46-1.29-1.6-3.36-2.81-4.8-.6-.72-.2-1.57-.28-2.36a2,2,0,0,1,1.93-2.33,1.88,1.88,0,0,1,2,2.22c-.91,5.21,3.79,5.51,6.46,7.6,1.62-.57,3.62-.45,4.95-1.09,5.41-2.58,10.56-.93,15.8.15,2.67,2.6,4.54-.33,6.69-1s2.76-2.85,2.92-4.92a3,3,0,0,1,1.06-2.57,1.51,1.51,0,0,1,1.32-.4.94.94,0,0,1,.65,1.11C121.36,99.31,121.39,100,121.39,100.64ZM100,128.32c2.65.56,4.17-.77,5.49-2.89,1.06-1.7,1.82-3.53,2.7-5.3.4-.8.52-1.66-.71-1.69a7.26,7.26,0,0,1-2.58-.94c-3.9-1.54-5.22-1.38-9.52-.13-.79.23-1.06,1.16-2,1.07-1.8-.16-2.72.39-1.15,2.1.56.61.13,1.27.34,1.85a14.11,14.11,0,0,0,3.8,5.35C97.52,128.9,98.85,128,100,128.32Z"/><path class="cls-2" d="M103.48,84.58c.33,0,.66,0,1,0,6.16.61,7.6,2.87,4.9,8.87A13.29,13.29,0,0,1,100.6,101c-.56.16-1,.64-1.71.42-3.92-1.24-9.81-8-10.32-11.86a3.05,3.05,0,0,1,.64-2.22c1.83-2.74,4.44-3,7.31-2.73v1c-.92-.07-1,.56-1,1.23a.82.82,0,0,0,1,.78c1.93,0,3.86,0,5.79,0,1.64,0,1.1-1.15,1.19-2Z"/><path class="cls-2" d="M117.41,70.65c2-.73,2.1,1,2.48,2,1.12,3,.68,6.15.35,9.13-.22,2-2.71,3.1-4.58,3.61-1,.27-2.62-.63-3.62-1.73-2.65-2.9-3.12-9.07-1.72-12.84.78-2.12,2.52-2.26,3.84-3.07,1-.6,1.91.71,2.26,1.87a2.38,2.38,0,0,0-2.54,1c-.73,1.07-.84,2.13.15,3,.81.72,1.31,2.24,2.63,1.87,1.57-.44.52-1.94.73-3A9.86,9.86,0,0,0,117.41,70.65Z"/><path class="cls-2" d="M83.58,68.66c1,.11,1.51-1.73,2.48-.91s3.18.88,3.38,2.39c.38,2.84,1.83,5.42.63,8.7a11.77,11.77,0,0,1-5.66,6.45c-.49.29-1.14.44-1.32.22-1.33-1.69-3.93-2.51-3.53-5.43a20.34,20.34,0,0,0,0-5.4c-.17-1.31.89-2,1.06-3h1c.06,1.25-.42,2.67,1,3.49.39.23.89.54,1.26.45C85,75.34,86.71,73,86.55,72a2.43,2.43,0,0,0-3-2.31Z"/><path class="cls-2" d="M96.52,85.57v-1a6.33,6.33,0,0,1,7,0v1Z"/><path class="cls-2" d="M116.42,69.65c.69,0,1,.31,1,1C116.72,70.67,116.39,70.34,116.42,69.65Z"/><path class="cls-1" d="M96.52,85.57h7c-.09.85.45,2-1.19,2-1.93,0-3.86,0-5.79,0a.82.82,0,0,1-1-.78C95.47,86.13,95.6,85.5,96.52,85.57Z"/><path class="cls-1" d="M116.42,69.65c0,.69.3,1,1,1a9.86,9.86,0,0,1,0,2c-.21,1,.84,2.51-.73,3-1.32.37-1.82-1.15-2.63-1.87-1-.88-.88-1.94-.15-3A2.38,2.38,0,0,1,116.42,69.65Z"/><path class="cls-1" d="M81.59,71.64a2.42,2.42,0,0,0,2-2,2.43,2.43,0,0,1,3,2.31c.16,1-1.58,3.38-2.68,3.62-.37.09-.87-.22-1.26-.45C81.17,74.31,81.65,72.89,81.59,71.64Z"/><path class="cls-2" d="M100.6,198.42A97.45,97.45,0,1,1,198.05,101,97.57,97.57,0,0,1,100.6,198.42Zm0-189.9A92.45,92.45,0,1,0,193.05,101,92.55,92.55,0,0,0,100.6,8.52Z"/><path class="cls-2" d="M79.57,74a8.6,8.6,0,0,1,4-5.3c1.19-.77,1.78-1.12,1.78-1.12l-1.78,2.11Z"/></svg>