<svg id="Layer_1" data-name="Layer 1" xmlns="http://www.w3.org/2000/svg" viewBox="0 0 600 600"><path d="M300.05,3.31C137.12,3.25,4.06,134.73,3.37,298.12,2.66,463.56,135.54,596.68,300.05,596.68c161.31.18,295.29-130.13,296.58-294.27C597.94,137.07,464.33,3.36,300.05,3.31Zm-5.13,577.12C144.05,577.8,17.6,453.31,19.59,296.15,21.5,145,144.79,19.13,300.89,19.6S580.45,147.24,580.38,300.07C580.32,457.07,450.78,583.14,294.92,580.43Z"/><path d="M513.59,397C492,440.68,458.22,472.47,416,495.7c-28.22,15.51-58.41,25.2-90.54,28.12-66.45,6-126.17-11.19-178.58-52.74C120.69,450.36,99.7,425.33,85.38,395,68.47,359.23,64.84,322.08,74,283.53c5.19-21.94,11.46-43.47,21.34-63.79,7.72-15.89,17.29-30.45,32.55-40.21,16-10.26,33.46-12.38,51.56-7,17.73,5.26,26.72,19.94,25,39.07-1.53,17.31-7.89,32.72-17.91,46.71-11.78,16.45-20.66,34.22-24,54.31-5.57,33.85,4.52,62.68,29.16,86.34a39.36,39.36,0,0,0,21.94,10.46C228.6,411.56,240,404,245,388.92c.35-1,.66-2.09,1.26-4,11.06,23.15,28.86,34.64,53.88,35.75,26.19,1.17,41.44-13.86,53.57-34.62,1.09,1.9,2,3.64,3.06,5.33,9.88,16.36,28.08,21.39,44.71,11.94A48.93,48.93,0,0,0,414,393.42c16.25-18.52,25.26-40.09,25-64.94-.22-20.69-6.82-39.66-17.21-57.37-2.71-4.62-5.79-9-8.83-13.45-10.25-14.87-17.15-31-17.46-49.28-.36-20.65,11-34.12,31.48-37.49,26.92-4.44,48,5.45,64.31,26.74,10.38,13.57,17.26,29,22.92,44.94,8.1,22.87,14.4,46.19,16.27,70.49C532.7,342.58,526.6,370.54,513.59,397Z"/><path d="M369.26,293.15a6.21,6.21,0,0,0-6.44,5.41c-.18,1.12-.18,2.27-.32,3.4-1.08,9-5.72,15.56-13.77,19.51-7.63,3.76-15.48,3.21-23.21.1-9.47-3.81-19.36-5.9-29.44-4.57a149.4,149.4,0,0,0-24.57,5.61c-18.72,5.79-34.19-8.52-34.29-23.17,0-4.27-2.79-6.67-6.35-6.48s-5.87,3-5.72,7.13c.4,12,5.52,21.49,15,28.63a5.17,5.17,0,0,1,2.35,4.48c.47,16.45,3.05,32.51,10.21,47.49,6.83,14.3,16.42,25.89,32.69,29.84,5.62,1.37,11.44,1.92,17.16,2.84,16.72-.13,28.65-8.35,37.91-21.36,12-16.9,17.17-35.83,16.32-56.44a7.17,7.17,0,0,1,3.24-6.79c9.63-7.35,14.76-17.18,14.73-29.45A5.83,5.83,0,0,0,369.26,293.15ZM312.88,393.22c-4.15,4.18-9.27,4-14.68,3.45-7.33-.74-12.87-3.8-16.78-10.17a66.81,66.81,0,0,1-8.19-21.21c18.09-10.34,36.06-9.9,54.09.18C325.07,375.56,320.75,385.3,312.88,393.22Z"/><path d="M337.7,264.07c-.62,8.55-4.57,15.7-9.76,22.19-6.6,8.24-14.3,15.21-25,17.55a15.51,15.51,0,0,1-8.61-.69c-16.23-6.6-27-18.41-31.53-35.38-2.15-8,.69-13.52,8.39-16.93A67.93,67.93,0,0,1,312.06,246a95.28,95.28,0,0,1,17.59,5.31C335.07,253.5,338,257.93,337.7,264.07Z"/><path d="M257.89,245.46c-8.7,8.49-19.82,6.82-24.92-4.23-2.28-5-3.08-10.6-3.84-13.33.63-13.29,3.15-23,10.79-30.62,8.49-8.49,19.25-6.77,24.88,3.83C271.71,214.13,268.43,235.18,257.89,245.46Z"/><path d="M370.63,224.37c-.1,7-1.12,12.64-4.05,17.85-5.53,9.84-15.87,11.49-24.05,3.68-7.33-7-10.21-16.05-10.93-25.88a34.29,34.29,0,0,1,3.75-19.23c5.61-10.28,16.11-11.92,24.45-3.73C367.7,204.83,370.24,214.73,370.63,224.37Z"/></svg>