<?xml version="1.0" encoding="utf-8"?>
<!-- Generator: Adobe Illustrator 26.0.1, SVG Export Plug-In . SVG Version: 6.00 Build 0)  -->
<svg version="1.1" id="Layer_1" xmlns="http://www.w3.org/2000/svg" xmlns:xlink="http://www.w3.org/1999/xlink" x="0px" y="0px"
	 viewBox="0 0 600 600" style="enable-background:new 0 0 600 600;" xml:space="preserve">
<style type="text/css">
	.st0{fill:#0EBAFB;}
	.st1{fill:#FFFFFF;}
</style>
<g>
	<path class="st0" d="M299.8,10.1C140.7,10.1,10.7,138.5,10,298.1C9.3,459.7,139.1,589.8,299.8,589.8
		c157.6,0.2,288.4-127.1,289.7-287.4C590.8,140.8,460.3,10.2,299.8,10.1z M294.8,573.9C147.4,571.3,23.9,449.7,25.8,296.2
		C27.7,148.5,148.1,25.6,300.6,26.1c152.4,0.5,273.1,124.7,273,274C573.6,453.4,447,576.5,294.8,573.9z"/>
	<path class="st0" d="M258.6,246.7c-8.5,8.3-19.4,6.7-24.3-4.1c-0.4-0.8-0.7-1.6-1-2.5c-2.7-7.5-2.9-15.7-1.2-23.5
		c1.5-6.7,4.2-12.3,9-17c8.3-8.3,18.8-6.6,24.3,3.7C272.1,216.1,268.9,236.6,258.6,246.7z"/>
	<path class="st1" d="M247.1,217.3c-2.9,1.5-5.5,0.1-5.6-3.3c0-0.3,0-0.7,0-1c0.1-2,0.7-3.9,1.7-5.7c1.1-1.9,2.4-3.4,4.2-4.3
		c2.9-1.5,5.3-0.1,5.7,3.2C253.4,210.2,250.6,215.5,247.1,217.3z"/>
	<path class="st0" d="M368.7,226.1c-0.1,6.8-1.1,12.4-4,17.4c-5.4,9.6-15.5,11.2-23.5,3.6c-7.2-6.8-10-15.7-10.7-25.3
		c-0.5-6.6,0.5-12.9,3.7-18.8c5.5-10.1,15.7-11.7,23.9-3.6C365.9,207,368.4,216.7,368.7,226.1z"/>
	<path class="st0" d="M336.6,264.9c-0.6,8.3-4.5,15.3-9.5,21.7c-6.4,8.1-14,14.9-24.4,17.1c-2.6,0.6-5.9,0.3-8.4-0.7
		c-15.9-6.4-26.3-18-30.8-34.6c-2.1-7.8,0.7-13.2,8.2-16.5c12.8-5.6,26.2-7.3,39.9-4.7c5.9,1.1,11.6,3,17.2,5.2
		C334,254.5,336.9,258.9,336.6,264.9z"/>
	<path class="st0" d="M367.4,293.3c-3-0.2-5.7,2-6.3,5.3c-0.2,1.1-0.2,2.2-0.3,3.3c-1.1,8.8-5.6,15.2-13.5,19.1
		c-7.5,3.7-15.1,3.1-22.7,0.1c-9.1-3.7-18.7-5.7-28.4-4.5c-7.6,0.9-14.9,3.4-22.4,4.8c-4.9,0.9-10,2.1-14.8,1.5
		c-11.3-1.6-19.3-10.9-20.4-22.4c0-0.6-0.1-1.1-0.2-1.7c-0.5-3.6-3-5.8-6.2-5.7c-3.2,0.2-5.6,2.7-5.6,6.3
		c0.2,12.9,6.1,22.8,16.8,30.2c0.1,1,0.1,1.9,0.2,2.8c0.5,16.1,3.1,31.7,10,46.4c7.7,16.3,19.4,27.7,38.1,30.6
		c15.7,2.4,29.9,0.1,41.2-11.9c12.4-13.1,19.5-28.9,21.7-46.8c0.8-6.7,0.7-13.5,1-20.5c0.8-0.6,1.8-1.2,2.6-1.9
		c9.4-7.4,14.6-16.9,14.6-29.1C372.8,295.9,370.6,293.5,367.4,293.3z M312.3,391c-4.1,4.1-9.1,3.9-14.3,3.4
		c-7.2-0.7-12.6-3.7-16.4-9.9c-4.1-6.6-6.5-13.8-8-20.7c17.7-10.1,35.2-9.7,52.8,0.2C324.2,373.8,320,383.3,312.3,391z"/>
	<path class="st0" d="M508.4,394.7c-21.1,42.7-54.1,73.8-95.4,96.5c-27.6,15.2-57.1,24.6-88.4,27.5c-64.9,5.9-123.2-10.9-174.4-51.5
		c-25.5-20.2-46-44.7-60-74.3C73.6,357.8,70,321.5,79,283.9c5.1-21.4,11.2-42.5,20.8-62.3c7.5-15.5,16.9-29.7,31.8-39.3
		c15.7-10,32.7-12.1,50.4-6.8c17.3,5.1,26.1,19.5,24.4,38.2c-1.5,16.9-7.7,32-17.5,45.6c-11.5,16.1-20.2,33.4-23.4,53.1
		c-5.4,33.1,4.4,61.2,28.5,84.3c5.9,5.6,13.3,9.1,21.4,10.2c14.6,2.1,25.7-5.3,30.5-20c0.3-1,0.6-2,1.2-3.9
		c10.8,22.6,28.2,33.8,52.6,34.9c25.6,1.1,40.5-13.5,52.3-33.8c1.1,1.9,2,3.6,3,5.2c9.7,16,27.4,20.9,43.7,11.7
		c4.5-2.5,8.9-5.8,12.2-9.7c15.9-18.1,24.7-39.2,24.4-63.4c-0.2-20.2-6.7-38.7-16.8-56c-2.6-4.5-5.7-8.8-8.6-13.1
		c-10-14.5-16.8-30.3-17.1-48.1c-0.4-20.2,10.8-33.3,30.8-36.6c26.3-4.3,46.9,5.3,62.8,26.1c10.1,13.3,16.9,28.3,22.4,43.9
		c7.9,22.3,14.1,45.1,15.9,68.8C527.1,341.5,521.1,368.9,508.4,394.7z"/>
	<path class="st1" d="M352.9,217.3c2.9,1.5,5.5,0.1,5.6-3.3c0-0.3,0-0.7,0-1c-0.1-2-0.7-3.9-1.7-5.7c-1.1-1.9-2.4-3.4-4.2-4.3
		c-2.9-1.5-5.3-0.1-5.7,3.2C346.5,210.2,349.3,215.5,352.9,217.3z"/>
	<ellipse class="st1" cx="299.7" cy="256.1" rx="13.2" ry="4.1"/>
</g>
</svg>
